<svg xmlns="http://www.w3.org/2000/svg" viewBox="0 0 32 32">
  <rect width="32" height="32" rx="6" fill="#111"/>
  <rect x="2" y="2" width="7" height="7" fill="#fff"/>
  <rect x="9" y="2" width="7" height="7" fill="#111"/>
  <rect x="16" y="2" width="7" height="7" fill="#fff"/>
  <rect x="23" y="2" width="7" height="7" fill="#111"/>
  <rect x="2" y="9" width="7" height="7" fill="#111"/>
  <rect x="9" y="9" width="7" height="7" fill="#fff"/>
  <rect x="16" y="9" width="7" height="7" fill="#111"/>
  <rect x="23" y="9" width="7" height="7" fill="#fff"/>
  <rect x="2" y="16" width="7" height="7" fill="#fff"/>
  <rect x="9" y="16" width="7" height="7" fill="#111"/>
  <rect x="16" y="16" width="7" height="7" fill="#fff"/>
  <rect x="23" y="16" width="7" height="7" fill="#111"/>
  <rect x="2" y="23" width="7" height="7" fill="#111"/>
  <rect x="9" y="23" width="7" height="7" fill="#fff"/>
  <rect x="16" y="23" width="7" height="7" fill="#111"/>
  <rect x="23" y="23" width="7" height="7" fill="#fff"/>
</svg>
